<svg width="40" height="40" viewBox="0 0 40 40" fill="none" xmlns="http://www.w3.org/2000/svg">
<path d="M39.9895 19.9609C39.9895 21.3672 38.9478 22.4688 37.7671 22.4688H35.5447L35.5933 34.9844C35.5933 35.1953 35.5794 35.4063 35.5586 35.6172V36.875C35.5586 38.6016 34.3154 40 32.7806 40H31.6694C31.593 40 31.5166 40 31.4402 39.9922C31.3429 40 31.2457 40 31.1485 40H28.8913H27.2245C25.6897 40 24.4465 38.6016 24.4465 36.875V35V30C24.4465 28.6172 23.4534 27.5 22.2241 27.5H17.7793C16.55 27.5 15.5569 28.6172 15.5569 30V35V36.875C15.5569 38.6016 14.3137 40 12.7789 40H11.1121H8.89659C8.79242 40 8.68824 39.9922 8.58406 39.9844C8.50072 39.9922 8.41738 40 8.33404 40H7.22284C5.68798 40 4.44482 38.6016 4.44482 36.875V28.125C4.44482 28.0547 4.44482 27.9766 4.45177 27.9063V22.4688H2.22241C0.972305 22.4688 0 21.375 0 19.9609C0 19.2578 0.208351 18.6328 0.694504 18.0859L18.5016 0.625C18.9877 0.078125 19.5433 0 20.0295 0C20.5156 0 21.0712 0.15625 21.4879 0.546875L39.2256 18.0859C39.7812 18.6328 40.059 19.2578 39.9895 19.9609Z" fill="#D9D9D9"/>
</svg>
