<svg width="30" height="30" viewBox="0 0 30 30" fill="none" xmlns="http://www.w3.org/2000/svg">
<path d="M22.1426 4.94866L29.3379 13.1719C29.7598 13.654 30 14.317 30 15C30 15.683 29.7598 16.346 29.3379 16.8281L22.1426 25.0513C21.7676 25.4799 21.2637 25.7143 20.7363 25.7143C19.6406 25.7143 18.75 24.6964 18.75 23.4442V19.2857H11.25C10.2129 19.2857 9.375 18.3281 9.375 17.1429V12.8571C9.375 11.6719 10.2129 10.7143 11.25 10.7143H18.75V6.5558C18.75 5.30357 19.6406 4.28571 20.7363 4.28571C21.2637 4.28571 21.7676 4.52679 22.1426 4.94866ZM9.375 4.28571H5.625C4.58789 4.28571 3.75 5.2433 3.75 6.42857V23.5714C3.75 24.7567 4.58789 25.7143 5.625 25.7143H9.375C10.4121 25.7143 11.25 26.6719 11.25 27.8571C11.25 29.0424 10.4121 30 9.375 30H5.625C2.51953 30 0 27.1205 0 23.5714V6.42857C0 2.87946 2.51953 0 5.625 0H9.375C10.4121 0 11.25 0.957589 11.25 2.14286C11.25 3.32812 10.4121 4.28571 9.375 4.28571Z" fill="#D9D9D9"/>
</svg>
