<svg width="40" height="40" viewBox="0 0 40 40" fill="none" xmlns="http://www.w3.org/2000/svg">
<path d="M21.1111 18.75V1.29688C21.1111 0.59375 21.5972 0 22.2222 0C30.8124 0 37.7777 7.83594 37.7777 17.5C37.7777 18.2031 37.2499 18.75 36.6249 18.75H21.1111ZM2.22217 21.25C2.22217 11.7734 8.47911 3.92969 16.5972 2.67969C17.2361 2.57812 17.7777 3.15625 17.7777 3.88281V22.5L28.6458 34.7266C29.1111 35.25 29.0763 36.1094 28.5416 36.5313C25.8194 38.7188 22.4861 40 18.8888 40C9.68745 40 2.22217 31.6094 2.22217 21.25ZM38.7777 22.5C39.4236 22.5 39.9305 23.1094 39.8472 23.8281C39.3124 28.1953 37.4444 32.0781 34.7152 34.9453C34.2986 35.3828 33.6458 35.3516 33.243 34.8906L22.2222 22.5H38.7777Z" fill="#D9D9D9"/>
</svg>
