<svg width="30" height="30" viewBox="0 0 30 30" fill="none" xmlns="http://www.w3.org/2000/svg">
<path d="M29.9168 9.76363C30.1158 10.2735 29.9479 10.842 29.519 11.2053L26.8272 13.5144C26.8955 14.0008 26.9328 14.4989 26.9328 15.0029C26.9328 15.5069 26.8955 16.0051 26.8272 16.4915L29.519 18.8005C29.9479 19.1639 30.1158 19.7324 29.9168 20.2422C29.6433 20.9396 29.3138 21.6077 28.9346 22.2524L28.6424 22.7271C28.2321 23.3718 27.7721 23.9812 27.2685 24.5556C26.9018 24.9775 26.2925 25.1182 25.7455 24.9541L22.2828 23.9168C21.4498 24.5204 20.5297 25.0244 19.5475 25.4054L18.7704 28.7517C18.6461 29.285 18.2109 29.707 17.639 29.7949C16.7811 29.9297 15.8983 30 14.9969 30C14.0955 30 13.2127 29.9297 12.3548 29.7949C11.7829 29.707 11.3477 29.285 11.2234 28.7517L10.4463 25.4054C9.46408 25.0244 8.54401 24.5204 7.71099 23.9168L4.25453 24.96C3.70747 25.124 3.09824 24.9775 2.73145 24.5614C2.22791 23.9871 1.76787 23.3776 1.35758 22.733L1.06539 22.2583C0.686178 21.6136 0.356696 20.9455 0.0831636 20.2481C-0.115769 19.7382 0.0520803 19.1698 0.481029 18.8064L3.17284 16.4974C3.10445 16.0051 3.06715 15.5069 3.06715 15.0029C3.06715 14.4989 3.10445 14.0008 3.17284 13.5144L0.481029 11.2053C0.0520803 10.842 -0.115769 10.2735 0.0831636 9.76363C0.356696 9.06622 0.686178 8.39812 1.06539 7.75347L1.35758 7.27877C1.76787 6.63411 2.22791 6.02461 2.73145 5.45028C3.09824 5.02833 3.70747 4.88767 4.25453 5.05177L7.7172 6.08908C8.55023 5.48545 9.4703 4.98144 10.4525 4.60051L11.2296 1.25415C11.3539 0.720844 11.7891 0.298887 12.361 0.210979C13.2189 0.0703262 14.1017 0 15.0031 0C15.9045 0 16.7873 0.0703262 17.6452 0.205118C18.2171 0.293026 18.6523 0.714983 18.7766 1.24829L19.5537 4.59465C20.5359 4.97558 21.456 5.47959 22.289 6.08322L25.7517 5.04591C26.2987 4.88181 26.908 5.02833 27.2748 5.44442C27.7783 6.01875 28.2383 6.62825 28.6486 7.2729L28.9408 7.74761C29.32 8.39226 29.6495 9.06036 29.9231 9.75777L29.9168 9.76363ZM15.0031 19.6913C16.3221 19.6913 17.5871 19.1974 18.5198 18.3181C19.4525 17.4389 19.9764 16.2464 19.9764 15.0029C19.9764 13.7595 19.4525 12.567 18.5198 11.6877C17.5871 10.8085 16.3221 10.3145 15.0031 10.3145C13.6841 10.3145 12.4191 10.8085 11.4864 11.6877C10.5538 12.567 10.0298 13.7595 10.0298 15.0029C10.0298 16.2464 10.5538 17.4389 11.4864 18.3181C12.4191 19.1974 13.6841 19.6913 15.0031 19.6913Z" fill="#D9D9D9"/>
</svg>
